<svg xmlns="http://www.w3.org/2000/svg" viewBox="0 0 64 64" id="furniture">
  <path d="M57.01953,28.4104V15.12793a3.31572,3.31572,0,0,0-3.168-3.43945H10.3291a3.3165,3.3165,0,0,0-3.16894,3.43945V28.366A3.89066,3.89066,0,0,0,4,32.18066V47.1123a.99974.99974,0,0,0,1,1H7.15723v3.19922a.99973.99973,0,0,0,1,1h4.4873a.99973.99973,0,0,0,1-1V48.1123H50.53516v3.19922a.99973.99973,0,0,0,1,1h4.4873a.99973.99973,0,0,0,1-1V48.1123H59a.99974.99974,0,0,0,1-1V32.18066A3.88725,3.88725,0,0,0,57.01953,28.4104ZM10.3291,13.68848H53.85156a1.32691,1.32691,0,0,1,1.168,1.43945V28.29248H50.96484v-4.519A3.0454,3.0454,0,0,0,47.916,20.73926H40.06249a3.04541,3.04541,0,0,0-3.04882,3.03418v4.519H27.03223v-4.519a3.04562,3.04562,0,0,0-3.04981-3.03418H16.12988a3.04541,3.04541,0,0,0-3.04883,3.03418v4.519H9.16016V15.12793A1.32692,1.32692,0,0,1,10.3291,13.68848Zm28.68457,14.604v-4.519a1.04285,1.04285,0,0,1,1.04882-1.03418H47.916a1.05566,1.05566,0,0,1,1.04882,1.03418v4.519Zm-23.93262,0v-4.519a1.04286,1.04286,0,0,1,1.04883-1.03418h7.85254a1.05588,1.05588,0,0,1,1.04981,1.03418v4.519Zm-7.19335,2c13.02183-.00009,29.03173.00007,42.07472,0h6.1499A1.89007,1.89007,0,0,1,58,32.18066v3.666H6v-3.666A1.89008,1.89008,0,0,1,7.8877,30.29248Zm3.75683,20.019H9.15723V48.1123h2.4873Zm43.37793,0h-2.4873V48.1123h2.4873Zm1.02179-4.19922c-1.332-.00154-40.8701.00111-43.378,0-1.40064-.00082-5.29017.00054-6.66626,0l0-8.26562H58V46.1123Z"></path>
</svg>
