<svg xmlns="http://www.w3.org/2000/svg" viewBox="0 0 64 64" id="single-bed">
  <path d="M53.69 38.13c.004-.044.014-.085.014-.13v-3a4.004 4.004 0 0 0-4-4h-.778V19a2.002 2.002 0 0 0-2-2H17.074a2.002 2.002 0 0 0-2 2v12h-.778a4.004 4.004 0 0 0-4 4v3c0 .045.01.086.013.13A1.998 1.998 0 0 0 9 40v8a1.972 1.972 0 0 0 .097.583A.986.986 0 0 0 9 49v2a1 1 0 0 0 2 0v-1h42v1a1 1 0 0 0 2 0v-2a.985.985 0 0 0-.097-.417A1.972 1.972 0 0 0 55 48v-8a1.998 1.998 0 0 0-1.31-1.87ZM17.075 19h29.852v12h-7.977a2.5 2.5 0 0 0-2.449-3h-9a2.5 2.5 0 0 0-2.45 3h-7.976ZM27 30.5a.5.5 0 0 1 .5-.5h9a.5.5 0 0 1 0 1h-9a.5.5 0 0 1-.5-.5ZM12.296 35a2.002 2.002 0 0 1 2-2h35.408a2.002 2.002 0 0 1 2 2l.001 3h-39.41ZM11 48v-8h42l.001 8Z"></path>
</svg>
